<?xml version="1.0" standalone="no"?>
<!DOCTYPE svg PUBLIC "-//W3C//DTD SVG 20010904//EN"
 "http://www.w3.org/TR/2001/REC-SVG-20010904/DTD/svg10.dtd">
<svg version="1.0" xmlns="http://www.w3.org/2000/svg"
 width="512.000000pt" height="512.000000pt" viewBox="0 0 512.000000 512.000000"
 preserveAspectRatio="xMidYMid meet">
<metadata>
Created by potrace 1.14, written by Peter Selinger 2001-2017
</metadata>
<g transform="translate(0.000000,512.000000) scale(0.100000,-0.100000)"
fill="#000000" stroke="none">
<path d="M3730 4941 c0 -5 9 -11 19 -14 14 -3 18 -1 14 9 -6 15 -33 19 -33 5z"/>
<path d="M3734 4905 c-4 -8 -11 -12 -17 -8 -6 4 -8 -3 -3 -21 4 -15 2 -26 -4
-26 -5 0 -10 -14 -10 -31 0 -17 -4 -28 -10 -24 -6 4 -10 -7 -10 -25 0 -19 -4
-29 -10 -25 -6 4 -10 -5 -10 -22 1 -49 -12 -97 -21 -82 -6 9 -9 1 -9 -23 0
-21 -5 -38 -11 -38 -6 0 -8 -8 -4 -19 3 -11 1 -22 -5 -26 -6 -3 -8 -11 -5 -16
4 -5 2 -9 -4 -9 -6 0 -7 -7 -4 -17 4 -11 3 -14 -5 -9 -8 5 -12 -4 -12 -28 0
-20 -5 -36 -11 -36 -6 0 -9 -9 -6 -20 3 -10 -2 -25 -9 -31 -8 -7 -13 -18 -10
-24 6 -17 -19 -87 -27 -78 -4 3 -7 -10 -7 -30 0 -21 -4 -37 -10 -37 -5 0 -7
-7 -4 -15 4 -8 0 -23 -7 -32 -8 -9 -13 -18 -11 -20 7 -10 1 -33 -8 -28 -6 4
-10 -6 -10 -24 0 -16 -4 -32 -10 -36 -5 -3 -7 -12 -4 -20 3 -8 -1 -22 -10 -31
-10 -10 -14 -24 -10 -36 4 -14 2 -18 -5 -14 -7 5 -11 -5 -11 -29 0 -25 -4 -34
-11 -29 -8 5 -10 -1 -7 -20 3 -14 1 -26 -4 -26 -5 0 -6 -4 -3 -10 3 -5 1 -10
-5 -10 -6 0 -8 -5 -5 -10 4 -6 2 -17 -4 -24 -7 -8 -11 -18 -10 -22 1 -5 1 -18
0 -29 -1 -15 -3 -17 -10 -7 -5 9 -11 -8 -15 -47 -4 -35 -11 -59 -17 -56 -5 4
-9 -8 -9 -25 0 -19 -4 -29 -10 -25 -6 4 -10 -5 -8 -23 1 -17 -3 -37 -10 -45
-7 -8 -9 -23 -5 -32 4 -13 3 -16 -5 -11 -8 5 -12 -3 -12 -23 0 -17 -5 -31 -11
-31 -5 0 -9 -8 -8 -17 3 -32 -1 -44 -12 -37 -7 4 -10 -3 -9 -17 3 -33 -11 -89
-22 -89 -5 0 -8 -8 -7 -17 3 -33 -1 -44 -12 -37 -8 5 -10 -1 -7 -20 3 -14 1
-29 -3 -32 -5 -3 -9 -16 -9 -30 0 -14 -4 -22 -10 -19 -6 4 -10 -7 -10 -24 0
-17 -4 -31 -9 -31 -5 0 -9 -14 -9 -31 1 -17 -4 -34 -11 -38 -7 -5 -9 -15 -5
-26 5 -13 4 -16 -4 -11 -8 5 -12 -3 -12 -23 0 -17 -5 -31 -11 -31 -6 0 -10
-10 -9 -22 3 -38 1 -50 -10 -43 -5 3 -10 -4 -10 -17 1 -40 -12 -88 -21 -82 -5
3 -9 -9 -9 -25 0 -17 -5 -31 -11 -31 -5 0 -9 -8 -8 -17 4 -29 -13 -93 -22 -87
-5 3 -9 -9 -9 -25 0 -17 -5 -31 -11 -31 -7 0 -9 -9 -6 -21 3 -12 0 -22 -9 -26
-8 -3 -13 -11 -10 -19 5 -14 -15 -64 -26 -64 -5 0 -8 -12 -8 -26 0 -17 -4 -23
-12 -18 -8 5 -9 2 -5 -9 3 -9 0 -31 -8 -49 -8 -18 -15 -26 -16 -18 -1 8 -5 -5
-10 -29 -5 -24 -15 -51 -22 -60 -8 -9 -12 -22 -9 -30 3 -8 0 -11 -7 -7 -7 5
-11 -2 -11 -18 0 -14 -5 -26 -11 -26 -6 0 -8 -9 -4 -21 5 -15 4 -19 -4 -15
-11 7 -15 -5 -12 -31 1 -7 -3 -13 -9 -13 -5 0 -9 -3 -9 -7 4 -24 -2 -43 -12
-37 -6 3 -10 -1 -9 -12 3 -25 -10 -64 -21 -64 -5 0 -9 -12 -9 -26 0 -16 -4
-23 -12 -18 -8 5 -9 0 -6 -14 4 -12 2 -25 -3 -28 -5 -3 -9 -14 -9 -25 0 -11
-4 -17 -10 -14 -10 6 -14 -7 -11 -32 1 -7 -3 -13 -9 -13 -6 0 -10 -6 -9 -12 3
-27 -1 -39 -12 -32 -6 3 -10 -1 -9 -12 3 -25 -10 -64 -21 -64 -5 0 -9 -12 -9
-26 0 -16 -4 -23 -12 -18 -8 5 -9 0 -6 -14 4 -12 2 -25 -3 -28 -5 -3 -9 -14
-9 -25 0 -11 -4 -17 -10 -14 -6 4 -10 -5 -10 -19 0 -14 -5 -26 -11 -26 -6 0
-9 -7 -5 -15 3 -8 -2 -21 -10 -30 -8 -8 -12 -19 -9 -25 3 -5 1 -10 -4 -10 -6
0 -11 -12 -11 -26 0 -16 -4 -23 -12 -18 -7 5 -9 0 -6 -14 4 -13 0 -23 -9 -26
-7 -3 -13 -11 -12 -18 3 -20 -12 -68 -22 -68 -5 0 -9 -12 -9 -26 0 -15 -4 -23
-11 -19 -6 4 -9 1 -8 -6 3 -24 -13 -79 -22 -73 -5 3 -9 -6 -9 -20 0 -14 -5
-26 -11 -26 -6 0 -8 -7 -5 -15 3 -9 -1 -18 -9 -22 -10 -3 -13 -12 -9 -25 4
-14 2 -18 -5 -14 -7 5 -11 -2 -11 -18 0 -14 -4 -26 -10 -26 -5 0 -10 -12 -10
-26 0 -17 -4 -23 -12 -18 -8 5 -9 2 -5 -9 3 -9 0 -31 -7 -48 -9 -21 -15 -27
-19 -18 -3 8 -6 -1 -6 -18 -1 -18 -5 -33 -11 -33 -5 0 -7 -6 -4 -14 3 -8 1
-17 -5 -21 -6 -3 -11 -15 -11 -26 0 -11 -4 -17 -10 -14 -6 4 -10 -5 -10 -19 0
-21 -5 -26 -26 -26 -19 0 -25 4 -21 15 4 8 2 17 -3 20 -6 4 -10 18 -10 32 0
15 -3 23 -7 20 -10 -11 -33 51 -26 70 4 11 3 14 -5 9 -8 -5 -12 3 -12 24 0 18
-4 29 -10 25 -6 -3 -10 3 -10 14 0 11 -4 22 -9 25 -5 3 -7 14 -4 25 3 11 -2
21 -11 24 -9 4 -13 13 -10 22 3 8 1 15 -5 15 -6 0 -11 11 -11 25 0 14 -5 25
-11 25 -5 0 -7 5 -4 10 3 6 -1 17 -9 25 -8 9 -13 22 -10 30 4 8 1 15 -5 15 -6
0 -11 15 -11 33 0 21 -3 28 -9 19 -9 -15 -25 38 -21 72 1 11 -3 16 -9 12 -7
-5 -11 3 -11 18 0 14 -4 26 -9 26 -11 0 -25 48 -22 74 2 11 -2 16 -8 12 -11
-7 -15 5 -12 31 1 7 -3 13 -9 13 -5 0 -10 12 -10 26 0 14 -4 23 -9 20 -10 -6
-25 48 -21 78 1 11 -3 16 -9 12 -7 -5 -11 3 -11 18 0 14 -4 26 -9 26 -6 0 -13
20 -17 45 -3 25 -10 42 -15 39 -9 -5 -13 9 -10 33 1 7 -3 13 -9 13 -5 0 -10 9
-10 20 0 11 -5 20 -11 20 -6 0 -8 7 -5 16 3 8 -1 22 -9 30 -8 8 -12 21 -9 29
4 8 1 15 -5 15 -7 0 -11 6 -10 12 3 26 -1 39 -11 33 -5 -3 -12 16 -16 44 -4
28 -10 48 -15 45 -5 -3 -10 0 -10 5 -3 21 -4 26 -12 39 -5 6 -6 16 -3 21 3 5
0 11 -8 14 -9 4 -12 14 -9 28 4 15 3 20 -5 15 -8 -5 -12 1 -12 18 0 14 -4 27
-10 31 -5 3 -7 12 -4 20 4 8 -1 18 -10 21 -11 4 -14 13 -11 25 4 11 2 19 -4
19 -6 0 -11 15 -11 33 0 24 -3 28 -10 17 -8 -12 -10 -11 -10 7 0 12 -5 25 -11
29 -6 3 -9 14 -6 24 3 11 -1 21 -8 24 -8 3 -11 15 -8 33 3 19 2 24 -5 15 -7
-10 -11 -5 -17 20 -4 18 -7 39 -6 46 1 7 -5 15 -12 18 -9 3 -13 13 -10 25 3
10 1 19 -5 19 -5 0 -12 18 -16 40 -3 22 -10 40 -15 40 -11 0 -21 -25 -21 -51
0 -12 -4 -17 -11 -14 -6 4 -10 1 -9 -6 3 -21 -11 -59 -21 -59 -5 0 -9 -9 -9
-21 0 -12 -4 -17 -11 -14 -6 4 -9 1 -8 -6 3 -19 -12 -52 -27 -62 -7 -4 -10
-15 -7 -24 4 -11 3 -14 -6 -9 -8 5 -12 3 -10 -5 3 -28 -1 -40 -13 -33 -8 5 -9
2 -5 -9 3 -10 2 -17 -3 -17 -6 0 -9 -3 -9 -7 3 -20 -2 -34 -11 -28 -6 4 -10
-5 -10 -20 0 -16 -4 -24 -11 -20 -6 4 -10 1 -9 -6 3 -21 -11 -59 -21 -59 -5 0
-9 -9 -9 -21 0 -12 -4 -17 -11 -14 -6 4 -9 1 -8 -6 4 -20 -11 -59 -22 -59 -5
0 -9 -9 -9 -20 0 -11 -5 -20 -11 -20 -5 0 -7 -5 -4 -10 3 -6 -1 -13 -10 -16
-8 -4 -15 -11 -14 -18 2 -21 -13 -56 -23 -50 -5 4 -8 -4 -6 -17 2 -16 -2 -23
-10 -21 -7 1 -12 -3 -11 -10 4 -21 -12 -59 -22 -53 -5 4 -9 -5 -9 -19 0 -14
-4 -26 -10 -26 -5 0 -7 -6 -4 -14 3 -7 -2 -16 -11 -20 -9 -3 -13 -10 -10 -16
3 -5 1 -10 -4 -10 -6 0 -11 -9 -11 -20 0 -11 -4 -20 -9 -20 -5 0 -12 -7 -15
-16 -4 -10 -2 -13 7 -9 6 4 3 -1 -8 -10 -11 -9 -19 -19 -18 -23 5 -15 -9 -42
-19 -36 -5 3 -9 -2 -8 -12 3 -25 -10 -64 -21 -64 -5 0 -9 -7 -9 -16 0 -8 -4
-13 -9 -10 -5 3 -11 -12 -15 -35 -4 -22 -11 -37 -16 -34 -9 6 -14 -8 -11 -27
0 -5 -4 -8 -9 -8 -6 0 -10 -9 -10 -21 0 -13 -4 -18 -12 -13 -7 5 -9 0 -6 -14
4 -13 -2 -28 -13 -41 -11 -11 -18 -26 -17 -33 2 -7 -3 -12 -10 -10 -8 1 -13
-5 -12 -15 3 -27 -11 -64 -21 -57 -5 3 -9 -4 -9 -15 0 -12 -5 -21 -11 -21 -6
0 -8 -7 -5 -15 3 -9 -1 -18 -10 -22 -8 -3 -13 -12 -10 -20 3 -8 1 -11 -4 -8
-6 3 -13 -1 -16 -9 -3 -9 -15 -16 -26 -16 -11 0 -16 4 -12 11 3 6 -1 10 -12 9
-34 -4 -45 0 -38 11 5 8 -1 10 -20 7 -14 -3 -29 -1 -32 3 -3 5 -16 9 -30 9
-14 0 -22 4 -19 10 4 6 -7 10 -27 10 -26 0 -30 3 -18 11 12 8 9 10 -13 6 -16
-3 -34 1 -42 9 -8 8 -21 11 -31 7 -12 -4 -15 -3 -10 5 7 12 -4 16 -36 13 -10
-1 -18 3 -18 9 0 6 -6 10 -13 9 -6 -1 -21 -1 -32 0 -15 1 -17 3 -7 10 9 5 -5
10 -39 14 -29 4 -57 11 -63 17 -5 5 -20 10 -33 10 l-23 0 0 -600 0 -600 2560
0 2560 0 0 1459 c0 918 -4 1462 -10 1466 -5 3 -6 13 -3 22 4 10 2 14 -4 10
-11 -7 -26 27 -24 51 1 6 -3 12 -9 12 -5 0 -10 9 -10 21 0 11 -4 18 -9 15 -9
-6 -24 30 -21 53 1 7 -3 10 -9 6 -7 -3 -11 2 -11 14 0 12 -4 21 -10 21 -5 0
-10 9 -10 20 0 11 -4 20 -10 20 -5 0 -6 7 -3 17 4 11 3 14 -5 9 -12 -7 -16 5
-13 33 2 7 -2 10 -8 6 -7 -3 -11 2 -11 14 0 12 -4 21 -10 21 -5 0 -12 16 -16
35 -3 19 -10 32 -15 29 -5 -3 -9 2 -9 11 0 9 -8 25 -19 36 -11 13 -17 28 -13
41 3 14 1 19 -6 14 -8 -5 -12 0 -12 13 0 12 -5 21 -10 21 -6 0 -9 3 -9 8 3 19
-2 33 -11 27 -5 -3 -7 0 -4 8 3 8 -2 17 -10 20 -10 4 -13 13 -9 23 4 11 2 15
-4 11 -12 -7 -36 40 -28 54 4 5 1 9 -4 9 -6 0 -11 10 -11 22 0 12 -3 18 -7 15
-8 -9 -34 43 -27 54 3 5 0 9 -5 9 -6 0 -11 9 -11 21 0 11 -4 17 -10 14 -9 -6
-14 8 -11 28 0 4 -3 7 -9 7 -5 0 -7 6 -4 14 3 7 -2 16 -10 19 -9 4 -13 13 -10
22 3 8 1 15 -5 15 -6 0 -11 9 -11 21 0 11 -4 18 -9 14 -10 -6 -26 32 -22 53 1
7 -4 11 -11 10 -9 -2 -12 6 -10 22 2 14 1 22 -4 18 -11 -12 -35 28 -28 47 4
10 2 15 -7 13 -8 -2 -13 3 -12 9 2 7 -3 12 -10 10 -6 -1 -11 4 -10 10 2 7 -1
12 -6 10 -5 -1 -9 1 -10 6 0 4 -12 18 -26 31 -13 13 -21 26 -17 30 4 4 0 6 -8
4 -8 -2 -14 3 -13 9 2 7 -3 12 -10 10 -6 -1 -11 4 -9 11 1 8 -2 11 -7 8 -5 -3
-14 1 -21 9 -7 8 -9 15 -5 15 5 0 -3 9 -16 21 -13 12 -23 26 -21 31 1 5 -1 7
-6 4 -12 -7 -58 43 -67 72 -3 12 -10 20 -15 17 -4 -3 -13 2 -20 10 -7 8 -9 15
-4 15 5 0 -2 6 -16 13 -14 8 -24 19 -22 25 1 7 -1 11 -5 10 -5 -2 -9 1 -10 6
-1 5 -7 12 -15 17 -7 5 -13 13 -13 19 0 5 -3 9 -6 8 -11 -4 -49 34 -44 43 3 4
0 11 -6 15 -8 5 -10 2 -4 -7 4 -8 -6 2 -23 21 -16 19 -28 38 -25 43 2 4 -1 6
-9 5 -7 -2 -12 3 -10 10 1 8 -2 11 -7 8 -5 -3 -14 1 -21 9 -7 8 -9 15 -6 15 4
0 1 6 -6 14 -7 8 -16 12 -20 9 -5 -2 -8 2 -8 10 0 8 -7 17 -15 21 -8 3 -15 13
-15 21 0 9 -4 14 -9 11 -11 -7 -33 19 -23 28 4 4 0 6 -8 4 -8 -1 -14 3 -12 10
1 6 -2 12 -8 12 -5 0 -10 6 -10 14 0 7 -9 16 -21 19 -12 3 -18 10 -14 17 4 6
1 9 -7 8 -7 -2 -12 3 -10 10 1 8 -2 11 -7 8 -5 -4 -12 -2 -16 4 -9 15 -25 12
-31 -5z"/>
<path d="M4270 4366 c0 -2 8 -10 18 -17 15 -13 16 -12 3 4 -13 16 -21 21 -21
13z"/>
</g>
</svg>
